custom-analysis
version=1
nRows=11
nColumns=42
inDegrees=no

This file contains tibia displacement and acting force.

Units are S.I. units (seconds, meters, Newtons, ...)
Angles are in degrees.

endheader
time	APT	SIT	knee_angle	aACL_R_force	pACL_R_force	aPCL_R_force	pPCL_R_force	aMCL_R_force	mMCL_R_force	pMCL_R_force	aLCL_R_force	mLCL_R_force	pLCL_R_force	aACL_R_length	pACL_R_length	aPCL_R_length	pPCL_R_length	aMCL_R_length	mMCL_R_length	pMCL_R_length	aLCL_R_length	mLCL_R_length	pLCL_R_length	aACL_R_strain	pACL_R_strain	aPCL_R_strain	pPCL_R_strain	aMCL_R_strain	mMCL_R_strain	pMCL_R_strain	aLCL_R_strain	mLCL_R_strain	pLCL_R_strain	femur_lat_meniscii_force_r	femur_lat_meniscii_torque_r	femur_med_meniscii_force_r	femur_med_meniscii_torque_r	femur_lat_tibia_force_r	femur_lat_tibia_torque_r	femur_med_tibia_force_r	femur_med_tibia_torque_r
      0.23963936	      0.00575951	     -0.00040351	     60.00037120	     30.64562062	      0.51684972	    329.46339003	     19.75776632	     29.22031729	      4.98928051	      0.00000000	      0.00000000	      0.00000000	      0.00000000	      0.03371750	      0.02602916	      0.03358679	      0.03050794	      0.06156371	      0.06033232	      0.05684476	      0.05172261	      0.04681539	      0.04185510	      0.06345913	      0.00659208	      0.08012427	      0.01396391	      0.06094935	      0.00901140	     -0.06394488	     -0.07600570	     -0.16874013	     -0.20036410	    170.02196834	     63.62977748	    178.23466225	     71.45748318	      0.00000000	      0.00000000	    104.65567269	      1.60536056
      0.25013915	      0.00579137	     -0.00039347	     60.00037120	     31.61738624	      1.25286402	    325.66369891	     21.02334751	     31.58815164	      6.63640677	      0.00000000	      0.00000000	      0.00000000	      0.00000000	      0.03372734	      0.02602926	      0.03355804	      0.03048939	      0.06162670	      0.06039509	      0.05690600	      0.05161285	      0.04670406	      0.04174268	      0.06376928	      0.00659592	      0.07919987	      0.01334733	      0.06203498	      0.01006115	     -0.06293645	     -0.07796665	     -0.17071700	     -0.20251184	    173.54386902	     64.84496398	    174.11103566	     69.86042347	      0.00000000	      0.00000000	     88.57734266	      1.33875380
      0.25118913	      0.00579453	     -0.00039376	     60.00037120	     31.02977520	      0.56178093	    324.27907931	     18.06894749	     29.44884223	      4.37470477	      0.00000000	      0.00000000	      0.00000000	      0.00000000	      0.03372935	      0.02603042	      0.03355644	      0.03048869	      0.06163350	      0.06040186	      0.05691261	      0.05160424	      0.04669531	      0.04173381	      0.06383283	      0.00664053	      0.07914836	      0.01332386	      0.06215218	      0.01017433	     -0.06282759	     -0.07812044	     -0.17087237	     -0.20268142	    175.70166344	     65.64796047	    175.04748635	     70.23754068	      0.00000000	      0.00000000	     86.94201217	      1.31212879
      0.25606155	      0.00581163	     -0.00038402	     60.00037120	     31.23532790	      0.62692756	    320.86987556	     16.27057887	     29.20084920	      3.86475131	      0.00000000	      0.00000000	      0.00000000	      0.00000000	      0.03373348	      0.02603021	      0.03353771	      0.03047384	      0.06165275	      0.06042061	      0.05693055	      0.05155551	      0.04664594	      0.04168372	      0.06396310	      0.00663260	      0.07854581	      0.01283051	      0.06248390	      0.01048796	     -0.06253216	     -0.07899089	     -0.17174892	     -0.20363827	    181.02209186	     67.63279241	    176.96448198	     70.98382417	      0.00000000	      0.00000000	     84.82169967	      1.27665021
      0.25667725	      0.00581386	     -0.00038334	     60.00037120	     31.27601770	      0.65024294	    320.64435465	     16.38292001	     29.31897515	      3.95684839	      0.00000000	      0.00000000	      0.00000000	      0.00000000	      0.03373436	      0.02603055	      0.03353587	      0.03047246	      0.06165551	      0.06042330	      0.05693314	      0.05155025	      0.04664061	      0.04167829	      0.06399081	      0.00664557	      0.07848691	      0.01278471	      0.06253141	      0.01053294	     -0.06248948	     -0.07908482	     -0.17184360	     -0.20374202	    181.46979219	     67.79986222	    176.70880720	     70.87858321	      0.00000000	      0.00000000	     84.32413978	      1.26844642
      0.25965165	      0.00582418	     -0.00038158	     60.00037120	     31.41618968	      0.65717369	    319.75362177	     16.74425666	     29.75107440	      4.23669930	      0.00000000	      0.00000000	      0.00000000	      0.00000000	      0.03373875	      0.02603234	      0.03352892	      0.03046758	      0.06166955	      0.06043705	      0.05694648	      0.05152771	      0.04661773	      0.04165497	      0.06412938	      0.00671486	      0.07826321	      0.01262250	      0.06277332	      0.01076287	     -0.06226978	     -0.07948762	     -0.17224981	     -0.20418755	    183.19882418	     68.46646915	    176.43729304	     70.74234905	      0.00000000	      0.00000000	     81.37489002	      1.21974138
      0.26412364	      0.00584050	     -0.00037819	     60.00037120	     31.84397382	      0.93552226	    318.00868446	     16.29423798	     29.94933307	      4.19571466	      0.00000000	      0.00000000	      0.00000000	      0.00000000	      0.03374417	      0.02603362	      0.03351818	      0.03045959	      0.06168776	      0.06045472	      0.05696364	      0.05149695	      0.04658656	      0.04162310	      0.06430006	      0.00676445	      0.07791790	      0.01235691	      0.06308712	      0.01105837	     -0.06198719	     -0.08003705	     -0.17280334	     -0.20479640	    183.29732310	     68.48163904	    176.01926109	     70.50983883	      0.00000000	      0.00000000	     78.19311809	      1.16798301
      0.26859562	      0.00585925	     -0.00037833	     60.00037120	     32.25113643	      1.05767940	    316.28171531	     14.95571969	     29.38966979	      3.36864163	      0.00000000	      0.00000000	      0.00000000	      0.00000000	      0.03375434	      0.02603974	      0.03350987	      0.03045349	      0.06170659	      0.06047277	      0.05698108	      0.05147385	      0.04656309	      0.04159871	      0.06462094	      0.00700120	      0.07765055	      0.01215423	      0.06341164	      0.01136029	     -0.06170003	     -0.08044966	     -0.17322004	     -0.20526237	    182.51697161	     68.09854951	    176.60442693	     70.74229538	      0.00000000	      0.00000000	     74.61933672	      1.10928751
      0.27397510	      0.00588424	     -0.00037726	     60.00037120	     32.75827604	      1.21680157	    314.21812784	     13.99562486	     29.04908497	      2.79917660	      0.00000000	      0.00000000	      0.00000000	      0.00000000	      0.03376785	      0.02604838	      0.03349809	      0.03044370	      0.06172415	      0.06048908	      0.05699659	      0.05145069	      0.04653956	      0.04157387	      0.06504712	      0.00733514	      0.07727194	      0.01182888	      0.06371424	      0.01163310	     -0.06144460	     -0.08086338	     -0.17363783	     -0.20573700	    183.60864281	     68.52255794	    176.61690945	     70.72774934	      0.00000000	      0.00000000	     72.23563587	      1.06999859
      0.28061252	      0.00591406	     -0.00038009	     60.00037120	     33.40535102	      1.40254759	    312.73273418	     13.69563460	     28.70196140	      2.23374233	      0.00000000	      0.00000000	      0.00000000	      0.00000000	      0.03378729	      0.02606258	      0.03348841	      0.03043540	      0.06174283	      0.06050613	      0.05701271	      0.05143603	      0.04652458	      0.04155722	      0.06566022	      0.00788420	      0.07696035	      0.01155285	      0.06403631	      0.01191823	     -0.06117916	     -0.08112536	     -0.17390375	     -0.20605507	    183.93127811	     68.62419493	    176.30797259	     70.62227817	      0.00000000	      0.00000000	     69.22410076	      1.02104683
      0.28374260	      0.00592750	     -0.00038134	     60.00037120	     33.72406589	      1.50984925	    312.15173218	     13.65637371	     28.58882928	      2.04791421	      0.00000000	      0.00000000	      0.00000000	      0.00000000	      0.03379599	      0.02606906	      0.03348431	      0.03043155	      0.06174876	      0.06051125	      0.05701744	      0.05143299	      0.04652147	      0.04155332	      0.06593466	      0.00813511	      0.07682870	      0.01142482	      0.06413844	      0.01200381	     -0.06110125	     -0.08117958	     -0.17395914	     -0.20612952	    183.86943627	     68.60145355	    176.34905573	     70.65544511	      0.00000000	      0.00000000	     68.52625062	      1.00892747
